#!OML:ASF Y:\EmotionMaleHayes\Project 1\Capture day 1\Session 1\Male1.ASF
:FULLY-SPECIFIED
:DEGREES
1062
root 22.2845 17.1653 13.8984 171.261 123.997 166.711
lowerback 7.13625 2.71881 -1.19915
upperback 4.3836 3.62212 -1.4136
thorax 0.547538 1.84115 -1.0169
lowerneck -27.525 5.66581 6.21379
upperneck 18.2476 5.91246 -2.32508
head 10.6125 2.85194 -0.843285
rclavicle -3.02153e-014 9.54166e-015
rhumerus 39.769 23.3124 -35.9057
rradius 40.5866
rwrist -2.9765
rhand -4.48768 -32.1949
rfingers 7.12502
rthumb 21.2856 -61.046
lclavicle -3.02153e-014 9.54166e-015
lhumerus 36.6234 -14.711 28.1192
lradius 36.2678
lwrist 3.65181
lhand -12.9025 -24.1182
lfingers 7.12502
lthumb 13.1872 5.44477
rfemur 14.259 -2.67364 9.71057
rtibia 25.3972
rfoot 4.30993 -7.70165
rtoes 16.1107
lfemur -15.7546 9.42521 -10.7937
ltibia 22.5266
lfoot -12.0985 8.69292
ltoes 12.439
1063
root 22.3854 17.1936 13.9105 171.397 123.638 166.799
lowerback 7.05354 2.62068 -1.56822
upperback 4.45501 3.47732 -1.53463
thorax 0.652227 1.76401 -0.91988
lowerneck -27.4734 5.98966 6.80912
upperneck 18.5073 6.2612 -2.8263
head 10.7552 2.98925 -1.05668
rclavicle -5.1684e-015 3.02153e-014
rhumerus 39.6457 23.2848 -35.7673
rradius 40.5643
rwrist -2.98672
rhand -4.35287 -31.9058
rfingers 7.12502
rthumb 21.4151 -60.7423
lclavicle -5.1684e-015 3.02153e-014
lhumerus 36.4822 -14.513 28.4567
lradius 36.1444
lwrist 3.59823
lhand -13.0496 -24.1451
lfingers 7.12502
lthumb 13.0453 5.42699
rfemur 13.9258 -3.00717 9.21215
rtibia 25.9563
rfoot 4.68157 -7.60987
rtoes 19.2276
lfemur -15.2423 8.80434 -11.2021
ltibia 21.9205
lfoot -12.1606 8.90773
ltoes 12.53
1064
root 22.4807 17.22 13.9224 171.411 123.346 166.706
lowerback 6.96704 2.56922 -1.83903
upperback 4.49136 3.39925 -1.62266
thorax 0.727644 1.72105 -0.849124
lowerneck -27.5877 6.63699 7.67088
upperneck 18.9833 6.9568 -3.3613
head 11.0441 3.29663 -1.25687
rclavicle -1.70955e-014 -1.90833e-014
rhumerus 39.5522 23.2621 -35.5751
rradius 40.4502
rwrist -3.21695
rhand -4.54658 -31.8787
rfingers 7.12502
rthumb 21.229 -60.7362
lclavicle -1.70955e-014 -1.90833e-014
lhumerus 36.4985 -14.5153 28.593
lradius 35.9901
lwrist 3.58279
lhand -13.408 -23.9715
lfingers 7.12502
lthumb 12.6999 5.62228
rfemur 13.4638 -3.34035 8.90272
rtibia 26.5584
rfoot 5.24302 -7.75883
rtoes 19.7333
lfemur -14.7922 8.21472 -11.4396
ltibia 21.3534
lfoot -12.1442 9.18062
ltoes 12.9207
1065
root 22.5746 17.2469 13.9353 171.273 123.188 166.552
lowerback 7.0295 2.59291 -2.0802
upperback 4.53503 3.41876 -1.6732
thorax 0.728283 1.72744 -0.770038
lowerneck -27.2903 6.62618 7.55514
upperneck 19.0824 6.95564 -3.11061
head 11.0146 3.32538 -1.15245
rclavicle 4.65156e-014 1.27222e-014
rhumerus 39.3851 23.2215 -35.3061
rradius 40.3518
rwrist -3.44327
rhand -4.9135 -32.0501
rfingers 7.12502
rthumb 20.8765 -60.9468
lclavicle 4.65156e-014 1.27222e-014
lhumerus 36.5806 -14.4715 28.8618
lradius 35.8383
lwrist 3.49096
lhand -13.5591 -23.9285
lfingers 7.12502
lthumb 12.5542 5.67433
rfemur 13.0522 -3.55043 8.7271
rtibia 27.1379
rfoot 5.63498 -7.77182
rtoes 17.9469
lfemur -14.1252 7.70164 -11.5385
ltibia 20.6673
lfoot -12.1142 9.47617
ltoes 12.9444
1066
root 22.6759 17.2713 13.9465 171.103 123.135 166.431
lowerback 7.00064 2.61749 -2.29805
upperback 4.68399 3.44934 -1.70691
thorax 0.888575 1.73907 -0.679605
lowerneck -27.3057 6.61966 7.45434
upperneck 19.2479 6.92813 -2.8642
head 11.0635 3.3383 -1.04957
rclavicle 5.08889e-014 6.36111e-015
rhumerus 39.1965 23.1056 -34.9987
rradius 40.4576
rwrist -3.33443
rhand -5.02539 -31.8328
rfingers 7.12502
rthumb 20.769 -60.7413
lclavicle 5.08889e-014 6.36111e-015
lhumerus 36.6399 -14.295 29.0789
lradius 35.7512
lwrist 3.64614
lhand -13.6351 -23.9275
lfingers 7.12502
lthumb 12.4809 5.67979
rfemur 12.8062 -3.68891 8.49317
rtibia 27.4983
rfoot 5.72059 -7.87379
rtoes 19.371
lfemur -13.3261 7.33658 -11.6467
ltibia 19.9698
lfoot -12.1855 9.65606
ltoes 12.7737
1067
root 22.7792 17.2932 13.9575 170.978 123.049 166.322
lowerback 6.82159 2.59532 -2.47297
upperback 4.87273 3.4293 -1.78726
thorax 1.17875 1.72573 -0.648973
lowerneck -27.3106 6.75605 7.60233
upperneck 19.3199 7.03611 -2.7682
head 11.0993 3.41118 -1.01694
rclavicle -1.00187e-013 1.59028e-014
rhumerus 39.1932 22.9213 -34.7264
rradius 40.5177
rwrist -3.39325
rhand -5.11294 -31.3697
rfingers 7.12502
rthumb 20.6849 -60.2874
lclavicle -1.00187e-013 1.59028e-014
lhumerus 36.7579 -14.2426 28.8703
lradius 35.7065
lwrist 3.98814
lhand -13.9642 -23.7331
lfingers 7.12502
lthumb 12.1636 5.8933
rfemur 12.5731 -3.92008 8.18476
rtibia 27.6768
rfoot 5.90133 -8.22951
rtoes 21.4708
lfemur -12.6243 7.03159 -11.7994
ltibia 19.3698
lfoot -12.1986 9.76427
ltoes 12.9019
1068
root 22.8757 17.3154 13.9719 171.275 122.871 166.719
lowerback 6.98553 2.57021 -3.18933
upperback 4.77816 3.34713 -1.82006
thorax 0.955024 1.67072 -0.290886
lowerneck -27.1084 6.91928 7.86545
upperneck 19.6722 7.2129 -2.85031
head 11.2211 3.50441 -1.05716
rclavicle 5.04913e-014 -3.81667e-014
rhumerus 39.1405 23.1819 -34.3198
rradius 40.5294
rwrist -3.60871
rhand -4.68187 -32.3501
rfingers 7.12502
rthumb 21.0991 -61.2221
lclavicle 5.04913e-014 -3.81667e-014
lhumerus 36.4019 -14.2775 29.14
lradius 35.6199
lwrist 3.72639
lhand -14.293 -23.6457
lfingers 7.12502
lthumb 11.8466 5.99916
rfemur 12.3247 -4.08783 7.63442
rtibia 27.7872
rfoot 6.04961 -8.47773
rtoes 20.2643
lfemur -11.9277 6.70924 -12.2638
ltibia 18.7423
lfoot -12.0408 9.8302
ltoes 13.1366
1069
root 22.9675 17.3357 13.9861 172.014 122.726 167.567
lowerback 7.69038 2.53326 -4.58788
upperback 4.15815 3.13725 -1.64124
thorax -0.150091 1.55287 0.63284
lowerneck -26.4589 7.15196 8.16714
upperneck 20.4407 7.60199 -3.1701
head 11.4479 3.67379 -1.1592
rclavicle -3.18055e-014 4.92986e-014
rhumerus 38.9767 24.3944 -33.6401
rradius 40.7281
rwrist -4.05071
rhand -4.88642 -32.6044
rfingers 7.12502
rthumb 20.9025 -61.4983
lclavicle -3.18055e-014 4.92986e-014
lhumerus 35.084 -14.4976 30.1796
lradius 35.495
lwrist 3.04105
lhand -14.3539 -23.7759
lfingers 7.12502
lthumb 11.7879 5.87234
rfemur 12.023 -4.21949 6.8202
rtibia 27.7697
rfoot 5.82551 -8.37229
rtoes 18.6998
lfemur -11.2731 6.46491 -12.9963
ltibia 18.081
lfoot -11.9529 9.82638
ltoes 13.518
1070
root 23.0593 17.3544 14.0011 172.33 122.725 167.904
lowerback 6.85571 2.70783 -4.5947
upperback 4.76871 3.46588 -1.99832
thorax 0.952181 1.70227 0.303431
lowerneck -26.5875 6.89444 7.92783
upperneck 19.961 7.21148 -2.82504
head 11.2403 3.52141 -1.06727
rclavicle -3.10104e-014 -2.38542e-014
rhumerus 38.8216 23.0557 -33.9593
rradius 40.4614
rwrist -3.77596
rhand -4.82184 -32.5726
rfingers 7.12502
rthumb 20.9646 -61.4596
lclavicle -3.10104e-014 -2.38542e-014
lhumerus 36.1588 -13.9716 30.0689
lradius 35.3331
lwrist 2.78662
lhand -14.2585 -23.8394
lfingers 7.12502
lthumb 11.8799 5.80354
rfemur 11.6221 -4.3808 6.33115
rtibia 27.7784
rfoot 5.42633 -8.16721
rtoes 18.1723
lfemur -10.6395 6.38702 -13.3359
ltibia 17.4876
lfoot -12.8117 9.77798
ltoes 15.1171
1071
root 23.1494 17.3728 14.0178 172.1 122.716 167.681
lowerback 7.51569 2.66367 -5.35144
upperback 4.27667 3.28212 -1.71885
thorax 0.0302468 1.61086 0.975988
lowerneck -25.8809 7.06575 7.89078
upperneck 20.294 7.49561 -2.6157
head 11.2459 3.68681 -0.946845
rclavicle 1.82882e-014 -1.59028e-014
rhumerus 38.6319 23.6742 -34.0853
rradius 40.3807
rwrist -3.34581
rhand -4.51523 -32.4606
rfingers 7.12502
rthumb 21.2591 -61.3147
lclavicle 1.82882e-014 -1.59028e-014
lhumerus 35.0928 -14.3065 30.4945
lradius 35.3707
lwrist 2.72789
lhand -14.2856 -23.9279
lfingers 7.12502
lthumb 11.8537 5.71655
rfemur 11.2193 -4.47586 6.29519
rtibia 27.8611
rfoot 4.85567 -8.18025
rtoes 18.2146
lfemur -10.0725 6.48717 -13.2535
ltibia 17.1463
lfoot -12.8929 9.61005
ltoes 15.1703
1072
root 23.2424 17.3896 14.0278 171.941 122.563 167.517
lowerback 7.70194 2.63338 -5.56865
upperback 4.15276 3.20653 -1.75225
thorax -0.205253 1.57637 1.05579
lowerneck -25.7796 7.19052 8.0795
upperneck 20.7036 7.60363 -2.53256
head 11.3939 3.7655 -0.923898
rclavicle 2.78299e-015 -6.36111e-015
rhumerus 38.3112 23.6306 -34.2827
rradius 40.4177
rwrist -3.29751
rhand -4.70893 -32.4603
rfingers 7.12502
rthumb 21.0731 -61.3352
lclavicle 2.78299e-015 -6.36111e-015
lhumerus 34.9067 -14.4351 30.4819
lradius 35.3753
lwrist 2.83659
lhand -14.388 -23.908
lfingers 7.12502
lthumb 11.7549 5.74219
rfemur 10.9325 -4.71631 6.12016
rtibia 27.8462
rfoot 3.9881 -8.19562
rtoes 19.1272
lfemur -9.59358 6.47889 -13.3153
ltibia 16.8841
lfoot -12.2491 9.42667
ltoes 13.6447
1073
root 23.3401 17.4028 14.0386 171.635 122.478 167.218
lowerback 7.28499 2.70218 -5.18548
upperback 4.49834 3.37885 -2.01922
thorax 0.409321 1.65855 0.585399
lowerneck -26.3708 7.21641 8.5035
upperneck 21.0667 7.44601 -2.60626
head 11.6527 3.71292 -1.02677
rclavicle 6.59965e-014 5.24792e-014
rhumerus 38.1533 22.9006 -34.3948
rradius 40.2832
rwrist -3.35294
rhand -4.98621 -32.7477
rfingers 7.12502
rthumb 20.8067 -61.6521
lclavicle 6.59965e-014 5.24792e-014
lhumerus 35.5763 -14.3049 30.144
lradius 35.4035
lwrist 2.90197
lhand -14.4754 -23.8027
lfingers 7.12502
lthumb 11.6707 5.85225
rfemur 10.7766 -5.05058 5.96031
rtibia 27.7257
rfoot 3.42056 -8.31979
rtoes 19.2066
lfemur -8.93344 6.29378 -13.2978
ltibia 16.4257
lfoot -10.2541 9.38552
ltoes 10.1845
1074
root 23.4325 17.4153 14.0563 171.31 122.552 166.939
lowerback 7.06467 2.84214 -5.03779
upperback 4.71772 3.60706 -2.18171
thorax 0.766986 1.77098 0.337989
lowerneck -26.288 7.15766 8.39113
upperneck 20.9896 7.29576 -2.16567
head 11.5758 3.6972 -0.875981
rclavicle -8.42847e-014 1.59028e-014
rhumerus 38.0442 22.3117 -34.5612
rradius 39.8926
rwrist -3.12834
rhand -5.09706 -32.6471
rfingers 7.12502
rthumb 20.7001 -61.5631
lclavicle -8.42847e-014 1.59028e-014
lhumerus 36.0918 -14.3229 29.8082
lradius 35.4441
lwrist 3.12147
lhand -14.3014 -23.8229
lfingers 7.12502
lthumb 11.8384 5.82245
rfemur 10.575 -4.95321 5.99402
rtibia 27.3881
rfoot 2.64165 -9.15331
rtoes 24.0873
lfemur -8.15543 6.19949 -13.1653
ltibia 15.867
lfoot -11.2914 9.30937
ltoes 13.758
